<mxfile host="app.diagrams.net" modified="2022-01-12T18:30:38.853Z" agent="5.0 (Windows)" etag="wke42vbt7l4H74s4lc30" version="16.2.4" type="github">
  <diagram id="ZlVDRE46efvJjWPG35-X" name="Page-1">
    <mxGraphModel dx="974" dy="2740" grid="1" gridSize="10" guides="1" tooltips="1" connect="1" arrows="1" fold="1" page="1" pageScale="1" pageWidth="850" pageHeight="1100" math="0" shadow="0">
      <root>
        <mxCell id="0" />
        <mxCell id="1" parent="0" />
        <mxCell id="k_VhqZwvHw_klteU0AoN-1" value="" style="rounded=0;whiteSpace=wrap;html=1;" parent="1" vertex="1">
          <mxGeometry x="10" y="-1324" width="830" height="750" as="geometry" />
        </mxCell>
        <mxCell id="k_VhqZwvHw_klteU0AoN-3" value="" style="rounded=0;whiteSpace=wrap;html=1;" parent="1" vertex="1">
          <mxGeometry x="10" y="-1274" width="180" height="700" as="geometry" />
        </mxCell>
        <mxCell id="k_VhqZwvHw_klteU0AoN-13" value="" style="rounded=0;whiteSpace=wrap;html=1;" parent="1" vertex="1">
          <mxGeometry x="10" y="-2160" width="830" height="750" as="geometry" />
        </mxCell>
        <mxCell id="k_VhqZwvHw_klteU0AoN-14" value="" style="rounded=0;whiteSpace=wrap;html=1;" parent="1" vertex="1">
          <mxGeometry x="10" y="-2160" width="830" height="50" as="geometry" />
        </mxCell>
        <mxCell id="k_VhqZwvHw_klteU0AoN-16" value="LOGO" style="text;html=1;strokeColor=none;fillColor=none;align=center;verticalAlign=middle;whiteSpace=wrap;rounded=0;" parent="1" vertex="1">
          <mxGeometry x="20" y="-2150" width="60" height="30" as="geometry" />
        </mxCell>
        <mxCell id="k_VhqZwvHw_klteU0AoN-17" value="ADMIN NAME" style="text;html=1;strokeColor=none;fillColor=none;align=right;verticalAlign=middle;whiteSpace=wrap;rounded=0;" parent="1" vertex="1">
          <mxGeometry x="640" y="-2150" width="160" height="30" as="geometry" />
        </mxCell>
        <mxCell id="k_VhqZwvHw_klteU0AoN-19" value="" style="rounded=0;whiteSpace=wrap;html=1;" parent="1" vertex="1">
          <mxGeometry x="114" y="-1890" width="310" height="170" as="geometry" />
        </mxCell>
        <mxCell id="k_VhqZwvHw_klteU0AoN-20" value="" style="rounded=0;whiteSpace=wrap;html=1;" parent="1" vertex="1">
          <mxGeometry x="424" y="-1890" width="320" height="170" as="geometry" />
        </mxCell>
        <mxCell id="k_VhqZwvHw_klteU0AoN-21" value="" style="rounded=0;whiteSpace=wrap;html=1;" parent="1" vertex="1">
          <mxGeometry x="114" y="-1720" width="310" height="170" as="geometry" />
        </mxCell>
        <mxCell id="k_VhqZwvHw_klteU0AoN-22" value="" style="rounded=0;whiteSpace=wrap;html=1;" parent="1" vertex="1">
          <mxGeometry x="424" y="-1720" width="320" height="170" as="geometry" />
        </mxCell>
        <mxCell id="cs2jw7C7ojxvi7_q9Mmo-1" value="" style="rounded=0;whiteSpace=wrap;html=1;" parent="1" vertex="1">
          <mxGeometry x="114" y="-2090" width="630" height="180" as="geometry" />
        </mxCell>
        <mxCell id="cs2jw7C7ojxvi7_q9Mmo-2" value="Notice" style="text;html=1;strokeColor=none;fillColor=none;align=left;verticalAlign=middle;whiteSpace=wrap;rounded=0;fontStyle=1;fontSize=14;" parent="1" vertex="1">
          <mxGeometry x="120" y="-2090" width="160" height="30" as="geometry" />
        </mxCell>
        <mxCell id="cs2jw7C7ojxvi7_q9Mmo-3" value="Lorem ipsum dolor sit amet, consectetur adipiscing elit, sed do eiusmod tempor incididunt ut labore et dolore magna aliqua. Ut enim ad minim veniam, quis nostrud exercitation ullamco laboris nisi ut aliquip ex ea &lt;br&gt;commodo consequat. Lorem ipsum dolor sit amet, consectetur adipiscing elit, sed do eiusmod &lt;br&gt;tempor incididunt ut labore et dolore magna aliqua. Ut enim ad minim veniam, quis nostrud exercitation ullamco laboris nisi ut aliquip ex ea commodo consequat. Lorem ipsum dolor sit amet, consectetur adipiscing elit, sed do eiusmod tempor incididunt ut labore et dolore magna aliqua. Ut enim ad minim veniam, quis nostrud exercitation ullamco laboris nisi ut aliquip ex ea commodo consequat. " style="text;html=1;strokeColor=none;fillColor=none;align=left;verticalAlign=top;whiteSpace=wrap;rounded=0;" parent="1" vertex="1">
          <mxGeometry x="120" y="-2060" width="610" height="140" as="geometry" />
        </mxCell>
        <mxCell id="cs2jw7C7ojxvi7_q9Mmo-4" value="Manage Facilities" style="text;html=1;strokeColor=none;fillColor=none;align=center;verticalAlign=middle;whiteSpace=wrap;rounded=0;fontSize=14;" parent="1" vertex="1">
          <mxGeometry x="120" y="-1760" width="300" height="30" as="geometry" />
        </mxCell>
        <mxCell id="cs2jw7C7ojxvi7_q9Mmo-5" value="Manage Roles" style="text;html=1;strokeColor=none;fillColor=none;align=center;verticalAlign=middle;whiteSpace=wrap;rounded=0;fontSize=14;" parent="1" vertex="1">
          <mxGeometry x="430" y="-1760" width="310" height="30" as="geometry" />
        </mxCell>
        <mxCell id="cs2jw7C7ojxvi7_q9Mmo-6" value="Manage Users" style="text;html=1;strokeColor=none;fillColor=none;align=center;verticalAlign=middle;whiteSpace=wrap;rounded=0;fontSize=14;" parent="1" vertex="1">
          <mxGeometry x="120" y="-1590" width="300" height="30" as="geometry" />
        </mxCell>
        <mxCell id="cs2jw7C7ojxvi7_q9Mmo-8" value="" style="verticalLabelPosition=bottom;verticalAlign=top;html=1;shape=mxgraph.basic.acute_triangle;dx=0.45;fontSize=14;rotation=-180;" parent="1" vertex="1">
          <mxGeometry x="807" y="-2140" width="17" height="10" as="geometry" />
        </mxCell>
        <mxCell id="cs2jw7C7ojxvi7_q9Mmo-9" value="&lt;div&gt;Manage Patients&lt;br&gt;&lt;/div&gt;" style="text;html=1;strokeColor=none;fillColor=none;align=center;verticalAlign=middle;whiteSpace=wrap;rounded=0;fontSize=14;" parent="1" vertex="1">
          <mxGeometry x="430" y="-1590" width="310" height="30" as="geometry" />
        </mxCell>
        <mxCell id="cs2jw7C7ojxvi7_q9Mmo-11" value="" style="rounded=0;whiteSpace=wrap;html=1;" parent="1" vertex="1">
          <mxGeometry x="10" y="-1324" width="830" height="50" as="geometry" />
        </mxCell>
        <mxCell id="cs2jw7C7ojxvi7_q9Mmo-12" value="LOGO" style="text;html=1;strokeColor=none;fillColor=none;align=center;verticalAlign=middle;whiteSpace=wrap;rounded=0;" parent="1" vertex="1">
          <mxGeometry x="20" y="-1314" width="60" height="30" as="geometry" />
        </mxCell>
        <mxCell id="cs2jw7C7ojxvi7_q9Mmo-13" value="ADMIN NAME" style="text;html=1;strokeColor=none;fillColor=none;align=right;verticalAlign=middle;whiteSpace=wrap;rounded=0;" parent="1" vertex="1">
          <mxGeometry x="640" y="-1314" width="160" height="30" as="geometry" />
        </mxCell>
        <mxCell id="cs2jw7C7ojxvi7_q9Mmo-14" value="" style="verticalLabelPosition=bottom;verticalAlign=top;html=1;shape=mxgraph.basic.acute_triangle;dx=0.45;fontSize=14;rotation=-180;" parent="1" vertex="1">
          <mxGeometry x="807" y="-1304" width="17" height="10" as="geometry" />
        </mxCell>
        <mxCell id="DUx7CVB_z5RlTZ3vSdrm-17" value="" style="rounded=0;whiteSpace=wrap;html=1;" vertex="1" parent="1">
          <mxGeometry x="10" y="-514" width="830" height="750" as="geometry" />
        </mxCell>
        <mxCell id="DUx7CVB_z5RlTZ3vSdrm-18" value="" style="rounded=0;whiteSpace=wrap;html=1;" vertex="1" parent="1">
          <mxGeometry x="10" y="-464" width="180" height="700" as="geometry" />
        </mxCell>
        <mxCell id="DUx7CVB_z5RlTZ3vSdrm-19" value="" style="rounded=0;whiteSpace=wrap;html=1;" vertex="1" parent="1">
          <mxGeometry x="10" y="-514" width="830" height="50" as="geometry" />
        </mxCell>
        <mxCell id="DUx7CVB_z5RlTZ3vSdrm-20" value="LOGO" style="text;html=1;strokeColor=none;fillColor=none;align=center;verticalAlign=middle;whiteSpace=wrap;rounded=0;" vertex="1" parent="1">
          <mxGeometry x="20" y="-504" width="60" height="30" as="geometry" />
        </mxCell>
        <mxCell id="DUx7CVB_z5RlTZ3vSdrm-21" value="ADMIN NAME" style="text;html=1;strokeColor=none;fillColor=none;align=right;verticalAlign=middle;whiteSpace=wrap;rounded=0;" vertex="1" parent="1">
          <mxGeometry x="640" y="-504" width="160" height="30" as="geometry" />
        </mxCell>
        <mxCell id="DUx7CVB_z5RlTZ3vSdrm-22" value="" style="verticalLabelPosition=bottom;verticalAlign=top;html=1;shape=mxgraph.basic.acute_triangle;dx=0.45;fontSize=14;rotation=-180;" vertex="1" parent="1">
          <mxGeometry x="807" y="-494" width="17" height="10" as="geometry" />
        </mxCell>
        <mxCell id="DUx7CVB_z5RlTZ3vSdrm-23" value="" style="rounded=0;whiteSpace=wrap;html=1;" vertex="1" parent="1">
          <mxGeometry x="220" y="-434" width="590" height="640" as="geometry" />
        </mxCell>
        <mxCell id="DUx7CVB_z5RlTZ3vSdrm-24" value="" style="rounded=0;whiteSpace=wrap;html=1;" vertex="1" parent="1">
          <mxGeometry x="700" y="-434" width="110" height="50" as="geometry" />
        </mxCell>
        <mxCell id="DUx7CVB_z5RlTZ3vSdrm-25" value="" style="rounded=0;whiteSpace=wrap;html=1;" vertex="1" parent="1">
          <mxGeometry x="340" y="-434" width="120" height="50" as="geometry" />
        </mxCell>
        <mxCell id="DUx7CVB_z5RlTZ3vSdrm-26" value="" style="rounded=0;whiteSpace=wrap;html=1;" vertex="1" parent="1">
          <mxGeometry x="460" y="-434" width="120" height="50" as="geometry" />
        </mxCell>
        <mxCell id="DUx7CVB_z5RlTZ3vSdrm-27" value="" style="rounded=0;whiteSpace=wrap;html=1;" vertex="1" parent="1">
          <mxGeometry x="580" y="-434" width="120" height="50" as="geometry" />
        </mxCell>
        <mxCell id="DUx7CVB_z5RlTZ3vSdrm-28" value="Admin Page Mockup 1" style="text;html=1;strokeColor=none;fillColor=none;align=center;verticalAlign=middle;whiteSpace=wrap;rounded=0;" vertex="1" parent="1">
          <mxGeometry x="252" y="-2150" width="388" height="30" as="geometry" />
        </mxCell>
      </root>
    </mxGraphModel>
  </diagram>
</mxfile>
